<svg preserveAspectRatio="none" overflow="visible" style="display: block;" width="24" height="24" viewBox="0 0 24 24" fill="none" xmlns="http://www.w3.org/2000/svg">
<g id="Profile">
<g id="Vector">
<path d="M24 12C24 18.6274 18.6274 24 12 24C5.37258 24 0 18.6274 0 12C0 5.37258 5.37258 0 12 0C18.6274 0 24 5.37258 24 12Z" fill="#D9D9D9"/>
<path d="M16 8C16 10.2091 14.2091 12 12 12C9.79086 12 8 10.2091 8 8C8 5.79086 9.79086 4 12 4C14.2091 4 16 5.79086 16 8Z" fill="#C6C6C6"/>
<path d="M12 13.6C15.7996 13.6 19.037 16.5554 20.2688 20.6953C18.1163 22.7428 15.2052 24 12 24C8.79479 24 5.88366 22.7428 3.73125 20.6953C4.96305 16.5554 8.20036 13.6 12 13.6Z" fill="#C6C6C6"/>
</g>
</g>
</svg>
