<svg preserveAspectRatio="none" overflow="visible" style="display: block;" width="24" height="24" viewBox="0 0 24 24" fill="none" xmlns="http://www.w3.org/2000/svg">
<g id="Thumb Up">
<path id="thumb_up" d="M17.2308 21H6.7115V8.7393L13.3462 2L14.1923 2.86438C14.2961 2.97047 14.3823 3.11096 14.451 3.28584C14.5195 3.46073 14.5538 3.62548 14.5538 3.7801V4.03936L13.4922 8.7393H20.1923C20.6679 8.7393 21.0881 8.92568 21.4527 9.29844C21.8176 9.67103 22 10.1003 22 10.5863V12.2367C22 12.3428 21.9865 12.4574 21.9595 12.5805C21.9327 12.7036 21.9026 12.8183 21.8693 12.9245L19.0038 19.8329C18.8603 20.1604 18.6199 20.4368 18.2828 20.6621C17.9456 20.8874 17.5949 21 17.2308 21ZM8.2115 19.4674H17.2308C17.3013 19.4674 17.3733 19.4477 17.447 19.4084C17.5208 19.3691 17.577 19.3036 17.6155 19.212L20.5 12.3153V10.5863C20.5 10.4945 20.4712 10.4192 20.4135 10.3603C20.3558 10.3013 20.2821 10.2719 20.1923 10.2719H11.5963L12.85 4.67207L8.2115 9.39167V19.4674ZM6.7115 8.7393V10.2719H3.5V19.4674H6.7115V21H2V8.7393H6.7115Z" fill="#0A0A0A"/>
</g>
</svg>
